<?xml version="1.0" encoding="utf-8"?>
<!-- Generator: Adobe Illustrator 21.1.0, SVG Export Plug-In . SVG Version: 6.00 Build 0)  -->
<svg version="1.1" baseProfile="tiny" id="Layer_1" xmlns="http://www.w3.org/2000/svg" xmlns:xlink="http://www.w3.org/1999/xlink"
	 x="0px" y="0px" width="300px" height="126px" viewBox="0 0 300 126" overflow="scroll" xml:space="preserve">
<polygon points="279.7,20.3 279.7,55.3 300,41 300,6 "/>
<g>
	<path d="M289.8,5V0c0,2.8-4.5,5-10.2,5s-10.2-2.2-10.2-5v5c0,2.8,4.5,5,10.2,5C285.4,10.2,289.8,7.9,289.8,5"/>
	<path d="M241.1,83.9c-6.9-2.1-11-4.7-10.9-9.6c0.3-5.5,5.2-7.4,10.5-7.2c7.8,0.2,11.2,7.1,11.2,7.1l10.7-7.1
		c-3.6-6.2-10.5-11.4-21.2-12.1c-12.1-0.9-24.1,5.3-24.8,18.4C215.9,86,224,92,237.3,95.6c6.7,1.9,12.8,4.3,12.6,10
		c-0.2,6.9-6.2,7.6-10.3,7.6c-7.9-0.2-14-9.3-14-9.3l-10.2,6.7c4,9.3,14.3,14.1,23.3,14.6c12.2,0.7,24.5-5.9,25.3-18.1
		C265,92.2,254.7,87.9,241.1,83.9"/>
	<path d="M67.4,104.9c-3.8,4.8-9.5,7.6-17.6,7.6H40V67.4h9.8c8.1,0,13.8,2.9,17.6,7.6c3.1,4,5,9.3,5,15
		C72.4,95.8,70.6,101.1,67.4,104.9 M72,62c-5.7-4.1-12.8-6.5-23.6-6.5H26.9v68.8h21.5c10.9,0,18.1-2.4,23.6-6.5
		c8.4-6.4,13.6-16.5,13.6-27.9C85.6,78.6,80.5,68.4,72,62"/>
	<path d="M169.6,97.4l8.8-20.3l8.8,20.3H169.6z M173.7,55.7l-29.5,68.8H158l6.5-15.2h27.6l6.5,15.2h13.8L183,55.7
		C183,55.7,173.7,55.7,173.7,55.7z"/>
	<polygon points="0,64.4 0,124.4 13.3,124.4 13.3,55.1 13.3,55.1 	"/>
	<polygon points="108.7,93.7 129.1,93.7 129.1,82 108.7,82 108.7,67.4 136.6,67.4 136.6,55.7 95.5,55.7 95.5,124.4 137.5,124.4 
		137.5,112.7 108.7,112.7 	"/>
</g>
</svg>
